<svg width="180" height="180" viewBox="0 0 180 180" fill="none" xmlns="http://www.w3.org/2000/svg">
    <defs>
        <linearGradient id="paint0_linear_7_11" x1="15.225" y1="78.9844" x2="164.784" y2="78.9844"
            gradientUnits="userSpaceOnUse">
            <stop stop-color="#6BE1E0" />
            <stop offset="1" stop-color="#38B7FF" />
        </linearGradient>
        <linearGradient id="paint1_linear_7_11" x1="52.5" y1="123.98" x2="127.5" y2="123.98"
            gradientUnits="userSpaceOnUse">
            <stop stop-color="#6BE1E0" />
            <stop offset="1" stop-color="#38B7FF" />
        </linearGradient>
    </defs>
    <path opacity="0.4"
        d="M152.025 128.925C144.525 135.75 134.85 139.5 124.725 139.425H124.05C126.3 134.775 127.5 129.525 127.5 123.975C127.5 103.275 110.7 86.475 90 86.475C69.3 86.475 52.5 103.275 52.5 123.975C52.5 129.525 53.7 134.775 55.95 139.425H41.55C6.44998 136.95 6.44998 85.875 41.55 83.4H41.925C17.85 16.425 119.4 -10.35 131.025 60C163.5 64.125 176.625 107.4 152.025 128.925Z"
        fill="url(#paint0_linear_7_11)" />
    <path
        d="M90 86.475C69.3 86.475 52.5 103.275 52.5 123.975C52.5 129.525 53.7 134.775 55.95 139.425C56.55 140.775 57.225 142.05 57.975 143.25C64.425 154.125 76.35 161.475 90 161.475C103.65 161.475 115.575 154.125 122.025 143.25C122.775 142.05 123.45 140.775 124.05 139.425C126.3 134.775 127.5 129.525 127.5 123.975C127.5 103.275 110.7 86.475 90 86.475ZM101.25 136.05C100.125 137.175 98.7 137.7 97.275 137.7C95.85 137.7 94.425 137.175 93.3 136.05L89.325 132.075L85.2 136.2C84.075 137.325 82.65 137.85 81.225 137.85C79.8 137.85 78.375 137.325 77.25 136.2C75.075 134.025 75.075 130.425 77.25 128.25L81.375 124.125L77.4 120.15C75.225 117.975 75.225 114.375 77.4 112.2C79.575 110.025 83.175 110.025 85.35 112.2L89.325 116.175L93.075 112.425C95.25 110.25 98.85 110.25 101.025 112.425C103.2 114.6 103.2 118.2 101.025 120.375L97.275 124.125L101.25 128.1C103.425 130.35 103.425 133.875 101.25 136.05Z"
        fill="url(#paint1_linear_7_11)" />
</svg>
